# xmcd
# Copyright (C) 1995-1998 Ti Kan
#
# Track frame offsets:
#       150
#       15027
#       35640
#       56236
#       81914
#       101942
#       115381
#       135345
#       154873
#       168558
#       182816
#       197927
#       217391
#
# Disc length: 3058 seconds
#
# Revision: 0
# Processed by: cddbd v1.5.2PL0 Copyright (c) Steve Scherf et al.
# Submitted via: CD-Transfer v1.0
#
DISCID=be0bf00d
DTITLE=Kind Of Camilla - Cover My Face
DYEAR=09
DGENRE=
TTITLE0=Divine Providence
TTITLE1=Him And Me
TTITLE2=Decisions
TTITLE3=Lost
TTITLE4=Facing The Truth
TTITLE5=Empty
TTITLE6=Words Said Instead
TTITLE7=The Loving Kind
TTITLE8=The Black Hattet Cat
TTITLE9=Passagio A Nord Ovest
TTITLE10=Don`t Give Me Honey
TTITLE11=A Place To Hide
TTITLE12=Leaning Silence (Lullyby)
EXTD=
EXTT0=
EXTT1=
EXTT2=
EXTT3=
EXTT4=
EXTT5=
EXTT6=
EXTT7=
EXTT8=
EXTT9=
EXTT10=
EXTT11=
EXTT12=
PLAYORDER=
